<svg width="512" height="512" viewBox="0 0 512 512" fill="none" xmlns="http://www.w3.org/2000/svg">
  <rect width="512" height="512" rx="96" fill="#F3F5F7"/>
  <circle cx="256" cy="256" r="196" fill="#E6EBEF"/>
  <ellipse cx="256" cy="390" rx="122" ry="18" fill="#C8D0D8" opacity="0.55"/>
  <rect x="178" y="150" width="156" height="210" rx="28" fill="#F8FBFD" stroke="#8EA2B4" stroke-width="10"/>
  <path d="M190 226H322V340C322 348.837 314.837 356 306 356H206C197.163 356 190 348.837 190 340V226Z" fill="#F0D762"/>
  <path d="M228 124L286 230" stroke="#D94B4B" stroke-width="12" stroke-linecap="round"/>
  <path d="M208 246L228 266" stroke="#FFF7D7" stroke-width="10" stroke-linecap="round"/>
  <path d="M268 258L288 278" stroke="#FFF7D7" stroke-width="10" stroke-linecap="round"/>
  <path d="M230 296L246 312" stroke="#FFF7D7" stroke-width="10" stroke-linecap="round"/>
  <circle cx="328" cy="178" r="42" fill="#F4DA57"/>
  <path d="M328 146C345.673 146 360 160.327 360 178C360 195.673 345.673 210 328 210C310.327 210 296 195.673 296 178C296 160.327 310.327 146 328 146Z" fill="#F8E68A"/>
  <path d="M328 136V220" stroke="#F0C737" stroke-width="8" stroke-linecap="round"/>
  <path d="M286 178H370" stroke="#F0C737" stroke-width="8" stroke-linecap="round"/>
</svg>
